<svg id="Capa_1" data-name="Capa 1" xmlns="http://www.w3.org/2000/svg" viewBox="0 0 150 60.56"><defs><style>.cls-1{fill:#031194;}.cls-2{fill:#d90102;}</style></defs><g id="logo"><path class="cls-1" d="M86.56,3.78l-13,1.05-.16.84c1.47.37,3,1.19,4.4,1,3.66-.43,7.26-1.33,10.9-2,6.13-1.09,12.27-2.26,18.39.11,3.72,1.44,4.77,4.59,2.09,7.49-1.8,1.95-4.24,3.31-6.53,5-1.1-3.25-2.07-3.83-5.37-2.88a86.09,86.09,0,0,0-10.48,3.66c-7.21,3.13-14.24,6.61-19.92,12.31-6,6-4.65,11.8,3.48,14.29A46.6,46.6,0,0,0,89.59,46c8.66-1,17.23-2.83,25.84-4.3a2.16,2.16,0,0,1,1.63.14c-.75.27-1.49.57-2.26.79-10.15,2.86-20.43,5.11-31,5.54-5.85.24-11.72-.1-17.25-2.41A16.62,16.62,0,0,1,62.7,43.6c-2.9-2.23-3.59-5.38-2.07-8.73,1.64-3.64,4.54-6.16,7.57-8.58,7-5.55,15.12-8.68,23.43-11.47,2.94-1,6-1.83,9-2.58,1.7-.42,3.56-.85,4.59,1.3,2.75-2.25,2.72-4.46-.11-6.25-3.36-2.12-7.17-1.77-10.82-1.36-4.7.52-9.33,1.72-14,2.16a25.36,25.36,0,0,1-7.81-.85C71.23,7,70.27,5.71,69.2,4.9l.26-.62,5.68-.43a23.49,23.49,0,0,0,5.67-.92,19.8,19.8,0,0,0-2.65-.75C67.94.74,58.69,3.32,50,8.63c-7.87,4.79-14.3,11.24-21,17.36-6,5.48-12.39,10.57-18.67,15.76a15.55,15.55,0,0,1-4.07,2.16c3.33-2.9,6.78-5.68,10-8.71,6.66-6.33,13-13,19.83-19.15A62.89,62.89,0,0,1,71.33.25,21.32,21.32,0,0,1,86.56,3.78Z"/><path class="cls-2" d="M.2,49.36a84.8,84.8,0,0,0,9.45-.8c4.25-.83,8.4-2.2,12.61-3.25a84.49,84.49,0,0,1,10.11-2.22,8.08,8.08,0,0,1,7.3,2.69c5-4.19,10.54-3.45,15.73-1.24a58.51,58.51,0,0,0,23.39,4.39,4.29,4.29,0,0,1,.78.15l.19.68c-1.21.43-2.42,1.23-3.64,1.24q-36.35.24-72.68.26C2.29,51.27,1.15,50.44,0,50Zm63,1,0-.38A63.37,63.37,0,0,0,56,46.87c-5.55-1.66-11.21-3.28-16.2,1.45-4.93-5.85-17.46-1.86-22.79,2Z"/></g><g id="iniciales"><polygon class="cls-2" points="76.44 39.12 80.71 39.12 84.1 22.88 79.84 22.88 76.44 39.12"/><polygon class="cls-2" points="100.04 22.88 86.98 22.88 86.22 26.54 90.65 26.54 88.01 39.12 92.28 39.12 94.91 26.54 99.28 26.54 100.04 22.88"/><path class="cls-2" d="M105.8,22.88,96.61,39.12h4.5l1.82-3.34h5.16l.51,3.34h4.1l-2.64-16.24Zm1.75,9.26h-2.88L107,28.27Z"/><polygon class="cls-2" points="126.53 28.71 121.84 28.71 123.06 22.88 118.8 22.88 115.4 39.12 119.67 39.12 121.08 32.37 125.77 32.37 124.35 39.12 128.62 39.12 132.01 22.88 127.76 22.88 126.53 28.71"/><polygon class="cls-2" points="135.13 22.88 134.37 26.54 138.8 26.54 136.16 39.12 140.43 39.12 143.06 26.54 147.43 26.54 148.19 22.88 135.13 22.88"/></g><g id="nombre"><rect class="cls-1" x="1.03" y="55.23" width="0.67" height="4.11"/><path class="cls-1" d="M4.71,56.62a.86.86,0,0,0-.36-.27,1.25,1.25,0,0,0-.51-.1,1.14,1.14,0,0,0-.84.33v-.27H2.42v3h.63V57.69a.93.93,0,0,1,.2-.69.72.72,0,0,1,.49-.18.58.58,0,0,1,.3.08.37.37,0,0,1,.17.2,1.37,1.37,0,0,1,0,.41v1.82H4.9V57.49a2.64,2.64,0,0,0,0-.48A1.14,1.14,0,0,0,4.71,56.62Z"/><path class="cls-1" d="M7.35,57.68a4.59,4.59,0,0,0-.73-.23,3.77,3.77,0,0,1-.42-.13.37.37,0,0,1-.16-.1.19.19,0,0,1,0-.12.26.26,0,0,1,.11-.2.71.71,0,0,1,.44-.1.62.62,0,0,1,.39.11.44.44,0,0,1,.16.3v.07l.63-.08,0-.08a1,1,0,0,0-.18-.48.92.92,0,0,0-.41-.29,1.72,1.72,0,0,0-.62-.1,1.61,1.61,0,0,0-.44.06,1,1,0,0,0-.33.15.83.83,0,0,0-.26.3.76.76,0,0,0-.1.39.8.8,0,0,0,.12.43.77.77,0,0,0,.34.3,5,5,0,0,0,.76.24,2.36,2.36,0,0,1,.47.15.21.21,0,0,1,.11.2.33.33,0,0,1-.13.26.71.71,0,0,1-.45.12.71.71,0,0,1-.47-.14.57.57,0,0,1-.2-.39v-.08l-.63.1v.07a1.17,1.17,0,0,0,.4.74,1.46,1.46,0,0,0,.9.25,1.47,1.47,0,0,0,.64-.13.93.93,0,0,0,.44-.36.88.88,0,0,0,.15-.49A.76.76,0,0,0,7.7,58,.7.7,0,0,0,7.35,57.68Z"/><path class="cls-1" d="M9.38,58.75l-.2,0a.19.19,0,0,1-.12,0A.09.09,0,0,1,9,58.68a.6.6,0,0,1,0-.23V56.84h.49v-.53H9V55.25l-.63.39v.67H8v.53h.36v1.58a1.92,1.92,0,0,0,.06.6.6.6,0,0,0,.24.26,1,1,0,0,0,.45.09,1.82,1.82,0,0,0,.38,0l.07,0-.09-.57Z"/><rect class="cls-1" x="9.8" y="55.23" width="0.64" height="0.71"/><rect class="cls-1" x="9.8" y="56.31" width="0.64" height="3.02"/><path class="cls-1" d="M12.15,58.75l-.2,0a.27.27,0,0,1-.13,0,.1.1,0,0,1-.05-.06.6.6,0,0,1,0-.23V56.84h.49v-.53h-.49V55.25l-.64.39v.67h-.35v.53h.35v1.58a1.59,1.59,0,0,0,.07.6.6.6,0,0,0,.24.26.93.93,0,0,0,.44.09,1.84,1.84,0,0,0,.39,0l.07,0-.1-.57Z"/><path class="cls-1" d="M14.39,57.93a1.44,1.44,0,0,1-.08.53.54.54,0,0,1-.23.27.7.7,0,0,1-.7,0,.52.52,0,0,1-.17-.26,4.66,4.66,0,0,1,0-.5V56.31h-.64v1.86a2.67,2.67,0,0,0,0,.47,1.14,1.14,0,0,0,.16.39,1,1,0,0,0,.36.27,1.45,1.45,0,0,0,.51.1,1.11,1.11,0,0,0,.83-.35v.28H15v-3h-.64Z"/><path class="cls-1" d="M16.76,58.75l-.2,0a.27.27,0,0,1-.13,0,.1.1,0,0,1-.05-.06.6.6,0,0,1,0-.23V56.84h.49v-.53h-.49V55.25l-.63.39v.67h-.36v.53h.36v1.58a1.92,1.92,0,0,0,.06.6.6.6,0,0,0,.24.26,1,1,0,0,0,.45.09,1.82,1.82,0,0,0,.38,0l.07,0-.09-.57Z"/><path class="cls-1" d="M18.41,56.25a1.39,1.39,0,0,0-.95.34A1.55,1.55,0,0,0,17,57.82,1.62,1.62,0,0,0,17.38,59a1.39,1.39,0,0,0,1,.41,1.42,1.42,0,0,0,.73-.19,1.24,1.24,0,0,0,.52-.52,2.08,2.08,0,0,0,.17-.91,1.52,1.52,0,0,0-.4-1.12A1.36,1.36,0,0,0,18.41,56.25Zm.77,1.56a1.18,1.18,0,0,1-.22.79.73.73,0,0,1-1.1,0,1.48,1.48,0,0,1,0-1.55.73.73,0,0,1,1.1,0A1.13,1.13,0,0,1,19.18,57.81Z"/><polygon class="cls-1" points="21.45 55.84 22.76 55.84 22.76 59.33 23.43 59.33 23.43 55.84 24.74 55.84 24.74 55.23 21.45 55.23 21.45 55.84"/><polygon class="cls-1" points="27.18 55.2 26.34 55.2 25.91 56.11 26.47 56.11 27.18 55.2"/><path class="cls-1" d="M27,58.31a.86.86,0,0,1-.27.41.63.63,0,0,1-.41.13.75.75,0,0,1-.55-.23,1,1,0,0,1-.24-.6h2.13V58a.72.72,0,0,0,0-.13,1.6,1.6,0,0,0-.39-1.15,1.28,1.28,0,0,0-1-.42,1.33,1.33,0,0,0-1,.42,1.64,1.64,0,0,0-.4,1.18A1.59,1.59,0,0,0,25.29,59a1.41,1.41,0,0,0,1.05.41,1.43,1.43,0,0,0,.87-.26,1.31,1.31,0,0,0,.47-.72l0-.09-.65-.08Zm-1.44-.84a.83.83,0,0,1,.22-.47.73.73,0,0,1,.51-.2.67.67,0,0,1,.55.25.8.8,0,0,1,.15.42Z"/><path class="cls-1" d="M30,58.2a.75.75,0,0,1-.22.49.57.57,0,0,1-.42.16.63.63,0,0,1-.52-.24,1.19,1.19,0,0,1-.21-.79,1.17,1.17,0,0,1,.21-.78.68.68,0,0,1,.54-.24.52.52,0,0,1,.37.13.73.73,0,0,1,.21.39l0,.07.62-.1,0-.07a1.17,1.17,0,0,0-.4-.72,1.28,1.28,0,0,0-.81-.25,1.55,1.55,0,0,0-.73.18,1.24,1.24,0,0,0-.5.56,2.22,2.22,0,0,0-.16.85A1.64,1.64,0,0,0,28.37,59a1.31,1.31,0,0,0,1,.41,1.24,1.24,0,0,0,.84-.3,1.31,1.31,0,0,0,.43-.82v-.07L30,58.12Z"/><path class="cls-1" d="M33.2,56.62a.86.86,0,0,0-.36-.27,1.25,1.25,0,0,0-.51-.1,1.14,1.14,0,0,0-.84.33v-.27h-.58v3h.63V57.69a.93.93,0,0,1,.2-.69.72.72,0,0,1,.49-.18.58.58,0,0,1,.3.08.37.37,0,0,1,.17.2,1.37,1.37,0,0,1,0,.41v1.82h.64V57.49a2.64,2.64,0,0,0,0-.48A1.14,1.14,0,0,0,33.2,56.62Z"/><rect class="cls-1" x="33.98" y="55.23" width="0.64" height="0.71"/><rect class="cls-1" x="33.98" y="56.31" width="0.64" height="3.02"/><path class="cls-1" d="M37.08,58.2a.75.75,0,0,1-.22.49.57.57,0,0,1-.42.16.63.63,0,0,1-.52-.24,1.19,1.19,0,0,1-.21-.79,1.17,1.17,0,0,1,.21-.78.68.68,0,0,1,.54-.24.52.52,0,0,1,.37.13.73.73,0,0,1,.21.39l0,.07.62-.1,0-.07a1.17,1.17,0,0,0-.4-.72,1.29,1.29,0,0,0-.82-.25,1.54,1.54,0,0,0-.72.18,1.24,1.24,0,0,0-.5.56,2.22,2.22,0,0,0-.16.85A1.64,1.64,0,0,0,35.44,59a1.31,1.31,0,0,0,1,.41,1.24,1.24,0,0,0,.84-.3,1.31,1.31,0,0,0,.43-.82v-.07l-.63-.09Z"/><path class="cls-1" d="M39.22,56.25a1.39,1.39,0,0,0-1,.34,1.54,1.54,0,0,0-.46,1.23A1.62,1.62,0,0,0,38.19,59a1.48,1.48,0,0,0,1.75.22,1.19,1.19,0,0,0,.52-.52,1.94,1.94,0,0,0,.17-.91,1.56,1.56,0,0,0-.39-1.12A1.39,1.39,0,0,0,39.22,56.25ZM40,57.81a1.18,1.18,0,0,1-.22.79.68.68,0,0,1-.54.25.67.67,0,0,1-.55-.25,1.15,1.15,0,0,1-.22-.78,1.14,1.14,0,0,1,.22-.77.67.67,0,0,1,.55-.25.69.69,0,0,1,.54.25A1.13,1.13,0,0,1,40,57.81Z"/><path class="cls-1" d="M44.12,55.23h-.66l-1.58,4.1h.72l.43-1.2h1.55L45,59.28l0,0h.76l-1.66-4.06Zm.24,2.33H43.24l.39-1.06c.06-.16.11-.33.16-.49.05.16.12.34.2.55Z"/><path class="cls-1" d="M47.8,56.52a.86.86,0,0,0-.22-.15,1,1,0,0,0-.49-.12,1.27,1.27,0,0,0-.69.2A1.18,1.18,0,0,0,46,57a2.09,2.09,0,0,0-.15.81,1.92,1.92,0,0,0,.16.81,1.31,1.31,0,0,0,.48.56,1.22,1.22,0,0,0,.67.2,1,1,0,0,0,.72-.29v.22h.6v-4.1H47.8Zm-.17.53a1.3,1.3,0,0,1,.21.82,1.13,1.13,0,0,1-.2.74.63.63,0,0,1-.49.24.61.61,0,0,1-.49-.25,1.18,1.18,0,0,1-.21-.77,1.21,1.21,0,0,1,.2-.79.6.6,0,0,1,.48-.24A.62.62,0,0,1,47.63,57.05Z"/><path class="cls-1" d="M52.12,56.25a1.09,1.09,0,0,0-.87.43.8.8,0,0,0-.26-.29,1.08,1.08,0,0,0-.56-.14,1.12,1.12,0,0,0-.55.14,1.1,1.1,0,0,0-.25.19v-.27h-.58v3h.64V57.77a1.69,1.69,0,0,1,.07-.57.53.53,0,0,1,.22-.28.59.59,0,0,1,.34-.1.38.38,0,0,1,.33.13.78.78,0,0,1,.1.44v1.94h.64V57.59a.82.82,0,0,1,.18-.59.6.6,0,0,1,.45-.18.43.43,0,0,1,.25.07.33.33,0,0,1,.14.17,1.19,1.19,0,0,1,0,.39v1.88h.64v-2a1.08,1.08,0,0,0-.26-.78A.94.94,0,0,0,52.12,56.25Z"/><rect class="cls-1" x="53.66" y="55.23" width="0.64" height="0.71"/><rect class="cls-1" x="53.66" y="56.31" width="0.64" height="3.02"/><path class="cls-1" d="M57.17,56.62a.76.76,0,0,0-.35-.27,1.25,1.25,0,0,0-.51-.1,1.14,1.14,0,0,0-.84.33v-.27h-.58v3h.63V57.69a.93.93,0,0,1,.2-.69.72.72,0,0,1,.49-.18.61.61,0,0,1,.3.08.37.37,0,0,1,.17.2,1.37,1.37,0,0,1,0,.41v1.82h.64V57.49a2.64,2.64,0,0,0,0-.48A1,1,0,0,0,57.17,56.62Z"/><rect class="cls-1" x="57.96" y="55.23" width="0.64" height="0.71"/><rect class="cls-1" x="57.96" y="56.31" width="0.64" height="3.02"/><path class="cls-1" d="M61.05,57.68a5,5,0,0,0-.73-.23c-.17-.05-.37-.1-.43-.13a.28.28,0,0,1-.15-.1.19.19,0,0,1,0-.12.23.23,0,0,1,.11-.2.68.68,0,0,1,.43-.1.6.6,0,0,1,.39.11.45.45,0,0,1,.17.3v.07l.62-.08v-.08a1,1,0,0,0-.18-.48.92.92,0,0,0-.41-.29,1.72,1.72,0,0,0-.62-.1,1.61,1.61,0,0,0-.44.06,1.2,1.2,0,0,0-.34.15.94.94,0,0,0-.26.3.86.86,0,0,0-.09.39.89.89,0,0,0,.11.43.79.79,0,0,0,.35.3,5.16,5.16,0,0,0,.75.24,2.64,2.64,0,0,1,.48.15.23.23,0,0,1,.11.2.34.34,0,0,1-.14.26.67.67,0,0,1-.45.12.68.68,0,0,1-.46-.14.57.57,0,0,1-.2-.39v-.08l-.64.1,0,.07a1.13,1.13,0,0,0,.4.74,1.44,1.44,0,0,0,.9.25,1.42,1.42,0,0,0,.63-.13.93.93,0,0,0,.44-.36.82.82,0,0,0,.16-.49A.83.83,0,0,0,61.4,58,.74.74,0,0,0,61.05,57.68Z"/><path class="cls-1" d="M63.08,58.75l-.2,0a.27.27,0,0,1-.13,0,.1.1,0,0,1,0-.06.6.6,0,0,1,0-.23V56.84h.49v-.53h-.49V55.25l-.64.39v.67h-.35v.53H62v1.58a1.83,1.83,0,0,0,.07.6.6.6,0,0,0,.24.26,1,1,0,0,0,.45.09,1.82,1.82,0,0,0,.38,0l.07,0-.09-.57Z"/><path class="cls-1" d="M65.16,56.42a.81.81,0,0,0-.89-.06.75.75,0,0,0-.2.2v-.25h-.58v3h.63V57.76a1.92,1.92,0,0,1,.08-.55.42.42,0,0,1,.16-.23.48.48,0,0,1,.55,0L65,57l.22-.59Z"/><path class="cls-1" d="M67.84,58.9a6.78,6.78,0,0,1,0-.84v-.65a2.32,2.32,0,0,0,0-.46.84.84,0,0,0-.17-.37.81.81,0,0,0-.36-.24,1.91,1.91,0,0,0-.63-.09,2.06,2.06,0,0,0-.68.11,1,1,0,0,0-.46.31,1.39,1.39,0,0,0-.23.52v.08l.62.09,0-.07a.66.66,0,0,1,.21-.38.78.78,0,0,1,.46-.11.74.74,0,0,1,.51.15.48.48,0,0,1,.11.36v.07a4.22,4.22,0,0,1-.81.15,3.63,3.63,0,0,0-.44.08,1.14,1.14,0,0,0-.37.17.9.9,0,0,0-.28.3.87.87,0,0,0-.1.42.83.83,0,0,0,.28.65,1.13,1.13,0,0,0,.77.25,1.56,1.56,0,0,0,.57-.1,1.81,1.81,0,0,0,.44-.25.85.85,0,0,0,.08.24l0,0H68L68,59.22A.94.94,0,0,1,67.84,58.9Zm-.68-1V58a1.06,1.06,0,0,1-.07.45.6.6,0,0,1-.29.3.88.88,0,0,1-.46.12.57.57,0,0,1-.38-.11.36.36,0,0,1-.12-.27.41.41,0,0,1,0-.19.34.34,0,0,1,.16-.13,2.19,2.19,0,0,1,.41-.09A6.17,6.17,0,0,0,67.16,57.93Z"/><path class="cls-1" d="M69.53,58.75a.49.49,0,0,1-.32,0,.09.09,0,0,1-.06-.06,1,1,0,0,1,0-.23V56.84h.49v-.53h-.49V55.25l-.63.39v.67h-.36v.53h.36v1.58a1.92,1.92,0,0,0,.06.6.6.6,0,0,0,.24.26,1,1,0,0,0,.45.09,1.82,1.82,0,0,0,.38,0l.07,0-.09-.57Z"/><rect class="cls-1" x="69.95" y="55.23" width="0.64" height="0.71"/><rect class="cls-1" x="69.95" y="56.31" width="0.64" height="3.02"/><path class="cls-1" d="M72.38,58.11l-.11.31c0-.11-.08-.23-.11-.34l-.62-1.72,0,0h-.67l1.14,3h.56l1.15-3H73Z"/><path class="cls-1" d="M75.18,56.25a1.39,1.39,0,0,0-1,.34,1.55,1.55,0,0,0-.47,1.23A1.62,1.62,0,0,0,74.15,59a1.38,1.38,0,0,0,1,.41,1.42,1.42,0,0,0,.73-.19,1.22,1.22,0,0,0,.51-.52,1.93,1.93,0,0,0,.18-.91,1.56,1.56,0,0,0-.4-1.12A1.37,1.37,0,0,0,75.18,56.25ZM76,57.81a1.24,1.24,0,0,1-.22.79.73.73,0,0,1-1.1,0,1.15,1.15,0,0,1-.22-.78,1.14,1.14,0,0,1,.22-.77.7.7,0,0,1,.55-.25.66.66,0,0,1,.54.25A1.13,1.13,0,0,1,76,57.81Z"/><path class="cls-1" d="M79.81,58c0,.13-.09.26-.13.39,0-.14-.09-.27-.14-.4L79,56.36l0,0h-.69l1.12,2.95,0,.1a3.56,3.56,0,0,1-.14.34.35.35,0,0,1-.14.13.59.59,0,0,1-.48,0l-.11,0,.08.62h0a.9.9,0,0,0,.34.07.72.72,0,0,0,.44-.13,1,1,0,0,0,.32-.38,4.53,4.53,0,0,0,.28-.66l1.13-3h-.65Z"/><polygon class="cls-1" points="85.52 56.85 83.61 56.85 83.61 55.23 82.93 55.23 82.93 59.33 83.61 59.33 83.61 57.47 85.52 57.47 85.52 59.33 86.19 59.33 86.19 55.23 85.52 55.23 85.52 56.85"/><path class="cls-1" d="M88.68,57.93a1.74,1.74,0,0,1-.07.53.62.62,0,0,1-.24.27.75.75,0,0,1-.38.1.55.55,0,0,1-.32-.09.52.52,0,0,1-.17-.26,3.6,3.6,0,0,1,0-.5V56.31h-.64v1.86a2.83,2.83,0,0,0,0,.47A1.14,1.14,0,0,0,87,59a1,1,0,0,0,.36.27,1.45,1.45,0,0,0,.51.1,1.11,1.11,0,0,0,.83-.35v.28h.59v-3h-.64Z"/><path class="cls-1" d="M93,56.25a1.07,1.07,0,0,0-.87.43.8.8,0,0,0-.26-.29,1.17,1.17,0,0,0-1.11,0,1.18,1.18,0,0,0-.25.19v-.27h-.58v3h.63V57.77a1.65,1.65,0,0,1,.08-.57.48.48,0,0,1,.22-.28.59.59,0,0,1,.34-.1.39.39,0,0,1,.33.13.87.87,0,0,1,.1.44v1.94h.64V57.59a.87.87,0,0,1,.17-.59.62.62,0,0,1,.46-.18.45.45,0,0,1,.25.07.39.39,0,0,1,.14.17,1.52,1.52,0,0,1,0,.39v1.88H94v-2a1.06,1.06,0,0,0-.25-.78A1,1,0,0,0,93,56.25Z"/><path class="cls-1" d="M97,58.9a6.78,6.78,0,0,1,0-.84v-.65A2.39,2.39,0,0,0,97,57a.84.84,0,0,0-.17-.37.79.79,0,0,0-.37-.24,1.81,1.81,0,0,0-.62-.09,2,2,0,0,0-.67.11,1,1,0,0,0-.47.31,1.39,1.39,0,0,0-.23.52v.08l.62.09,0-.07a.66.66,0,0,1,.21-.38.78.78,0,0,1,.46-.11.76.76,0,0,1,.51.15.48.48,0,0,1,.11.36v.07a4.38,4.38,0,0,1-.81.15,3.63,3.63,0,0,0-.44.08,1,1,0,0,0-.37.17.81.81,0,0,0-.28.3.87.87,0,0,0-.1.42.83.83,0,0,0,.28.65,1.13,1.13,0,0,0,.77.25,1.56,1.56,0,0,0,.57-.1,2,2,0,0,0,.44-.25.62.62,0,0,0,.08.24l0,0h.68l-.06-.11A.94.94,0,0,1,97,58.9Zm-.68-1V58a1.06,1.06,0,0,1-.07.45.65.65,0,0,1-.29.3.88.88,0,0,1-.46.12.57.57,0,0,1-.38-.11.36.36,0,0,1-.12-.27.41.41,0,0,1,0-.19.34.34,0,0,1,.16-.13,2.19,2.19,0,0,1,.41-.09A6.17,6.17,0,0,0,96.36,57.93Z"/><path class="cls-1" d="M99.9,56.62a.86.86,0,0,0-.36-.27,1.18,1.18,0,0,0-.5-.1,1.11,1.11,0,0,0-.84.33v-.27h-.59v3h.64V57.69a.89.89,0,0,1,.2-.69.68.68,0,0,1,.48-.18.56.56,0,0,1,.3.08.33.33,0,0,1,.17.2,1.11,1.11,0,0,1,0,.41v1.82h.64V57.49a2.57,2.57,0,0,0,0-.48A1,1,0,0,0,99.9,56.62Z"/><rect class="cls-1" x="100.86" y="56.31" width="0.64" height="3.02"/><polygon class="cls-1" points="102.06 55.2 101.22 55.2 100.79 56.11 101.35 56.11 102.06 55.2"/><path class="cls-1" d="M104.08,57.68a4.59,4.59,0,0,0-.73-.23c-.15-.05-.37-.1-.42-.13a.37.37,0,0,1-.16-.1.19.19,0,0,1,0-.12.24.24,0,0,1,.11-.2.7.7,0,0,1,.43-.1.64.64,0,0,1,.4.11.44.44,0,0,1,.16.3v.07l.62-.08v-.08a1,1,0,0,0-.18-.48.92.92,0,0,0-.41-.29,1.68,1.68,0,0,0-.62-.1,1.61,1.61,0,0,0-.44.06,1,1,0,0,0-.33.15.83.83,0,0,0-.26.3.76.76,0,0,0-.1.39.8.8,0,0,0,.12.43.83.83,0,0,0,.34.3,5,5,0,0,0,.76.24,2.36,2.36,0,0,1,.47.15.21.21,0,0,1,.11.2.33.33,0,0,1-.13.26.88.88,0,0,1-.92,0,.57.57,0,0,1-.2-.39v-.08l-.63.1v.07a1.17,1.17,0,0,0,.4.74,1.7,1.7,0,0,0,1.54.12.93.93,0,0,0,.44-.36.88.88,0,0,0,.15-.49.74.74,0,0,0-.13-.46A.76.76,0,0,0,104.08,57.68Z"/><path class="cls-1" d="M106.11,58.75l-.2,0a.27.27,0,0,1-.13,0,.1.1,0,0,1,0-.06.94.94,0,0,1,0-.23V56.84h.49v-.53h-.49V55.25l-.63.39v.67h-.36v.53h.36v1.58a1.92,1.92,0,0,0,.06.6.6.6,0,0,0,.24.26,1,1,0,0,0,.45.09,1.82,1.82,0,0,0,.38,0l.07,0-.09-.57Z"/><rect class="cls-1" x="106.53" y="55.23" width="0.64" height="0.71"/><rect class="cls-1" x="106.53" y="56.31" width="0.64" height="3.02"/><path class="cls-1" d="M109.63,58.2a.86.86,0,0,1-.22.49.6.6,0,0,1-.43.16.63.63,0,0,1-.52-.24,1.19,1.19,0,0,1-.2-.79,1.17,1.17,0,0,1,.21-.78.67.67,0,0,1,.54-.24.52.52,0,0,1,.36.13.74.74,0,0,1,.22.39v.07l.62-.1v-.07a1.18,1.18,0,0,0-.41-.72,1.26,1.26,0,0,0-.81-.25,1.48,1.48,0,0,0-.72.18,1.21,1.21,0,0,0-.51.56,2.22,2.22,0,0,0-.15.85A1.64,1.64,0,0,0,108,59a1.32,1.32,0,0,0,1,.41,1.24,1.24,0,0,0,.84-.3,1.33,1.33,0,0,0,.42-.82l0-.07-.63-.09Z"/><path class="cls-1" d="M111.76,56.25a1.39,1.39,0,0,0-1,.34,1.55,1.55,0,0,0-.47,1.23,1.62,1.62,0,0,0,.39,1.17,1.38,1.38,0,0,0,1,.41,1.45,1.45,0,0,0,.73-.19,1.28,1.28,0,0,0,.51-.52,1.93,1.93,0,0,0,.18-.91,1.56,1.56,0,0,0-.4-1.12A1.37,1.37,0,0,0,111.76,56.25Zm.77,1.56a1.18,1.18,0,0,1-.23.79.66.66,0,0,1-.54.25.7.7,0,0,1-.55-.25,1.15,1.15,0,0,1-.22-.78,1.14,1.14,0,0,1,.22-.77.7.7,0,0,1,.55-.25.66.66,0,0,1,.54.25A1.11,1.11,0,0,1,112.53,57.81Z"/><path class="cls-1" d="M117,56.52a1.07,1.07,0,0,0-.22-.15,1,1,0,0,0-.5-.12,1.23,1.23,0,0,0-.68.2,1.12,1.12,0,0,0-.45.57,2.09,2.09,0,0,0-.15.81,1.92,1.92,0,0,0,.16.81,1.36,1.36,0,0,0,.47.56,1.26,1.26,0,0,0,.68.2,1,1,0,0,0,.72-.29v.22h.6v-4.1H117Zm-.17.53a1.3,1.3,0,0,1,.21.82,1.11,1.11,0,0,1-.21.74.6.6,0,0,1-.48.24.61.61,0,0,1-.49-.25,1.18,1.18,0,0,1-.21-.77,1.28,1.28,0,0,1,.19-.79.63.63,0,0,1,.49-.24A.62.62,0,0,1,116.79,57.05Z"/><path class="cls-1" d="M120.18,58.31a.87.87,0,0,1-.28.41.69.69,0,0,1-.41.13.75.75,0,0,1-.55-.23,1,1,0,0,1-.24-.6h2.13v-.2a1.6,1.6,0,0,0-.39-1.15,1.28,1.28,0,0,0-1-.42,1.33,1.33,0,0,0-1,.42,1.68,1.68,0,0,0-.39,1.18,1.63,1.63,0,0,0,.38,1.14,1.43,1.43,0,0,0,1.06.41,1.38,1.38,0,0,0,.86-.26,1.26,1.26,0,0,0,.47-.72l0-.09-.64-.08Zm-1.45-.84A.83.83,0,0,1,119,57a.73.73,0,0,1,.52-.2.69.69,0,0,1,.54.25.9.9,0,0,1,.16.42Z"/><polygon class="cls-1" points="125.77 55.23 122.49 55.23 122.49 55.84 123.79 55.84 123.79 59.33 124.47 59.33 124.47 55.84 125.77 55.84 125.77 55.23"/><path class="cls-1" d="M126.73,56.25a1.39,1.39,0,0,0-1,.34,1.54,1.54,0,0,0-.46,1.23A1.62,1.62,0,0,0,125.7,59a1.48,1.48,0,0,0,1.75.22,1.24,1.24,0,0,0,.52-.52,1.94,1.94,0,0,0,.17-.91,1.56,1.56,0,0,0-.39-1.12A1.39,1.39,0,0,0,126.73,56.25Zm.76,1.56a1.18,1.18,0,0,1-.22.79.68.68,0,0,1-.54.25.67.67,0,0,1-.55-.25,1.42,1.42,0,0,1,0-1.55.67.67,0,0,1,.55-.25.69.69,0,0,1,.54.25A1.11,1.11,0,0,1,127.49,57.81Z"/><rect class="cls-1" x="128.55" y="55.23" width="0.64" height="4.11"/><path class="cls-1" d="M131.62,57.93a1.44,1.44,0,0,1-.08.53.52.52,0,0,1-.24.27.68.68,0,0,1-.69,0,.46.46,0,0,1-.17-.26,4.81,4.81,0,0,1,0-.5V56.31h-.64v1.86a2.83,2.83,0,0,0,0,.47A1.14,1.14,0,0,0,130,59a.92.92,0,0,0,.36.27,1.44,1.44,0,0,0,.5.1,1.12,1.12,0,0,0,.84-.35v.28h.58v-3h-.63Z"/><path class="cls-1" d="M134.74,58.2a.8.8,0,0,1-.22.49.59.59,0,0,1-.43.16.63.63,0,0,1-.52-.24,1.25,1.25,0,0,1-.2-.79,1.17,1.17,0,0,1,.21-.78.68.68,0,0,1,.54-.24.5.5,0,0,1,.36.13.68.68,0,0,1,.22.39l0,.07.61-.1v-.07a1.18,1.18,0,0,0-.41-.72,1.24,1.24,0,0,0-.81-.25,1.48,1.48,0,0,0-.72.18,1.18,1.18,0,0,0-.5.56,2,2,0,0,0-.16.85A1.6,1.6,0,0,0,133.1,59a1.3,1.3,0,0,0,1,.41,1.24,1.24,0,0,0,.84-.3,1.34,1.34,0,0,0,.43-.82v-.07l-.63-.09Z"/><path class="cls-1" d="M138.13,58.9c0-.11,0-.4,0-.84v-.65a2.64,2.64,0,0,0,0-.46.84.84,0,0,0-.17-.37.79.79,0,0,0-.37-.24,1.81,1.81,0,0,0-.62-.09,2,2,0,0,0-.68.11,1,1,0,0,0-.46.31,1.25,1.25,0,0,0-.23.52v.08l.62.09v-.07a.66.66,0,0,1,.22-.38.78.78,0,0,1,.46-.11.73.73,0,0,1,.5.15.44.44,0,0,1,.12.36v.07a4.24,4.24,0,0,1-.8.15,3.63,3.63,0,0,0-.44.08,1,1,0,0,0-.37.17.81.81,0,0,0-.28.3.92.92,0,0,0,.17,1.07,1.18,1.18,0,0,0,.78.25,1.56,1.56,0,0,0,.57-.1,1.76,1.76,0,0,0,.43-.25.85.85,0,0,0,.09.24l0,0h.68l-.06-.11A1,1,0,0,1,138.13,58.9Zm-.67-1V58a1.06,1.06,0,0,1-.07.45.65.65,0,0,1-.29.3.88.88,0,0,1-.46.12.57.57,0,0,1-.38-.11.36.36,0,0,1-.12-.27.41.41,0,0,1,.05-.19.34.34,0,0,1,.16-.13,2.24,2.24,0,0,1,.4-.09A6,6,0,0,0,137.46,57.93Z"/><path class="cls-1" d="M141.78,55.23h-.67l-1.54,4,0,.1h.72l.44-1.2h1.55l.44,1.15,0,0h.76l-1.66-4.06Zm.24,2.33h-1.13l.4-1.06a4.58,4.58,0,0,0,.15-.49c.06.15.12.34.2.55Z"/><rect class="cls-1" x="143.77" y="58.63" width="0.7" height="0.7"/><path class="cls-1" d="M148.05,57.86a1.25,1.25,0,0,1-.38.71,1.07,1.07,0,0,1-.7.23,1.3,1.3,0,0,1-.64-.17,1,1,0,0,1-.42-.53,2.44,2.44,0,0,1-.14-.85,2.3,2.3,0,0,1,.12-.74,1.06,1.06,0,0,1,.4-.55,1.18,1.18,0,0,1,.72-.2,1,1,0,0,1,.61.18,1.19,1.19,0,0,1,.38.59l0,.07.66-.16,0-.08a1.58,1.58,0,0,0-1.64-1.2,2.11,2.11,0,0,0-1,.24,1.73,1.73,0,0,0-.7.74,2.42,2.42,0,0,0-.24,1.11,2.82,2.82,0,0,0,.21,1.09,1.74,1.74,0,0,0,.64.79,2,2,0,0,0,1.08.27,1.72,1.72,0,0,0,1.09-.35,1.86,1.86,0,0,0,.62-1l0-.07-.67-.17Z"/><rect class="cls-1" x="149.3" y="58.63" width="0.7" height="0.7"/></g><g id="preparatoria"><path class="cls-1" d="M107.22,18.14a1.63,1.63,0,0,0-.66-.1h-1.67l-.84,3.83h.87l.31-1.4H106a3.67,3.67,0,0,0,.75-.08,1.33,1.33,0,0,0,.35-.13,1.2,1.2,0,0,0,.33-.25,1.43,1.43,0,0,0,.27-.43,1.29,1.29,0,0,0,.11-.5,1.11,1.11,0,0,0-.16-.57A.91.91,0,0,0,107.22,18.14Zm-.29.95a.52.52,0,0,1-.1.31.56.56,0,0,1-.26.22,1.57,1.57,0,0,1-.61.08h-.56l.2-.91h.77a1.24,1.24,0,0,1,.42,0,.2.2,0,0,1,.1.08A.3.3,0,0,1,106.93,19.09Z"/><path class="cls-1" d="M111.82,19.07a1,1,0,0,0-.16-.6.83.83,0,0,0-.47-.35,2.68,2.68,0,0,0-.73-.08h-1.67L108,21.87h.87l.33-1.53h.42a.82.82,0,0,1,.34,0,.43.43,0,0,1,.17.16,3,3,0,0,1,.3.57l.31.76h1l-.39-.91a2.71,2.71,0,0,0-.39-.67l0-.05a1.49,1.49,0,0,0,.65-.34A1.1,1.1,0,0,0,111.82,19.07Zm-2.33-.28h1a1.11,1.11,0,0,1,.33,0,.18.18,0,0,1,.09.08.28.28,0,0,1,0,.16.51.51,0,0,1-.07.24.48.48,0,0,1-.2.17.85.85,0,0,1-.38.1h-1Z"/><polygon class="cls-1" points="112.09 21.87 115.24 21.87 115.41 21.1 113.13 21.1 113.31 20.28 115.38 20.28 115.55 19.51 113.48 19.51 113.63 18.81 115.76 18.81 115.93 18.04 112.94 18.04 112.09 21.87"/><path class="cls-1" d="M119.58,19.58a1.13,1.13,0,0,0,.11-.5,1,1,0,0,0-.16-.57.89.89,0,0,0-.4-.37,1.72,1.72,0,0,0-.67-.1H116.8L116,21.87h.87l.31-1.4h.75a3.65,3.65,0,0,0,.74-.08,1.21,1.21,0,0,0,.35-.13,1.4,1.4,0,0,0,.34-.25A1.24,1.24,0,0,0,119.58,19.58Zm-.74-.49a.52.52,0,0,1-.1.31.64.64,0,0,1-.27.22,1.47,1.47,0,0,1-.6.08h-.57l.2-.91h.78a1.2,1.2,0,0,1,.41,0,.23.23,0,0,1,.11.08A.4.4,0,0,1,118.84,19.09Z"/><path class="cls-1" d="M121.72,18h-.4L119,21.87h1l.57-1h1.2l.18,1h.85L122.16,18h-.44Zm-.27,1.36s0-.09.08-.14l0,.24.11.64H121Z"/><path class="cls-1" d="M126.27,20.29l0-.05a1.38,1.38,0,0,0,.65-.34,1.18,1.18,0,0,0,.19-1.43.83.83,0,0,0-.47-.35,2.68,2.68,0,0,0-.73-.08H124.2l-.84,3.83h.86l.34-1.53H125a.78.78,0,0,1,.34,0s.1.05.18.16a3,3,0,0,1,.3.57l.3.76h1l-.39-.91A3.53,3.53,0,0,0,126.27,20.29Zm-1.37-1.5h1a1.17,1.17,0,0,1,.33,0,.23.23,0,0,1,.09.08.27.27,0,0,1,0,.16.42.42,0,0,1-.07.24.45.45,0,0,1-.19.17.85.85,0,0,1-.38.1h-1Z"/><path class="cls-1" d="M129.35,18l-2.28,3.83h1l.57-1h1.2l.18,1h.85L130.19,18Zm.13,1.36.08-.13,0,.23.11.64h-.65Z"/><polygon class="cls-1" points="131.57 18.04 131.4 18.81 132.59 18.81 131.92 21.87 132.79 21.87 133.46 18.81 134.64 18.81 134.81 18.04 131.57 18.04"/><path class="cls-1" d="M136.89,18a2,2,0,0,0-1.49.63,2.21,2.21,0,0,0-.62,1.62,1.81,1.81,0,0,0,.21.85,1.48,1.48,0,0,0,.61.63,1.89,1.89,0,0,0,.89.22,2.19,2.19,0,0,0,.86-.19,2.14,2.14,0,0,0,.57-.39,2.3,2.3,0,0,0,.45-.61,2.38,2.38,0,0,0,.23-1,1.73,1.73,0,0,0-.48-1.27A1.7,1.7,0,0,0,136.89,18Zm-1.25,2.28a1.6,1.6,0,0,1,.38-1.12,1.14,1.14,0,0,1,.86-.4.83.83,0,0,1,.62.25,1,1,0,0,1,.24.69,1.78,1.78,0,0,1-.1.59,1.46,1.46,0,0,1-.28.49,1.24,1.24,0,0,1-.39.3,1,1,0,0,1-.91,0,.74.74,0,0,1-.31-.32A.93.93,0,0,1,135.64,20.26Z"/><path class="cls-1" d="M142.82,19.07a1,1,0,0,0-.16-.6.83.83,0,0,0-.47-.35,2.68,2.68,0,0,0-.73-.08h-1.67L139,21.87h.87l.33-1.53h.41a.78.78,0,0,1,.34,0s.1.05.18.16a3,3,0,0,1,.3.57l.3.76h1l-.39-.91a3.53,3.53,0,0,0-.39-.67l0-.05a1.47,1.47,0,0,0,.66-.34A1.1,1.1,0,0,0,142.82,19.07Zm-2.33-.28h1a1.17,1.17,0,0,1,.33,0,.18.18,0,0,1,.09.08.27.27,0,0,1,0,.16.42.42,0,0,1-.07.24.45.45,0,0,1-.19.17.85.85,0,0,1-.38.1h-1Z"/><polygon class="cls-1" points="143.99 18.04 143.15 21.87 144.02 21.87 144.86 18.04 143.99 18.04"/><path class="cls-1" d="M147.25,18h-.4l-2.27,3.83h1l.58-1h1.19l.18,1h.85L147.69,18h-.44ZM147,19.4s.05-.09.08-.14l0,.24.11.64h-.65Z"/></g><g id="derechos"><path class="cls-2" d="M145.05,44.18a3,3,0,1,1,3-3A3,3,0,0,1,145.05,44.18Zm0-5.36a2.35,2.35,0,1,0,2.35,2.34A2.34,2.34,0,0,0,145.05,38.82Z"/><path class="cls-2" d="M143.76,42.59V39.73H145a2.12,2.12,0,0,1,.67.08.63.63,0,0,1,.33.27.85.85,0,0,1,.13.45.81.81,0,0,1-.19.54,1,1,0,0,1-.57.26,1.11,1.11,0,0,1,.31.24A3.38,3.38,0,0,1,146,42l.35.55h-.69l-.42-.62q-.22-.33-.3-.42a.47.47,0,0,0-.18-.12,1,1,0,0,0-.29,0h-.12v1.19Zm.58-1.65h.43a2.57,2.57,0,0,0,.52,0,.4.4,0,0,0,.16-.12.38.38,0,0,0,.06-.22.3.3,0,0,0-.08-.23.31.31,0,0,0-.21-.11,2.93,2.93,0,0,0-.43,0h-.45Z"/></g></svg>