<svg id="Capa_1" data-name="Capa 1" xmlns="http://www.w3.org/2000/svg" viewBox="0 0 283.46 125.12"><defs><style>.cls-1{fill:#fff;}</style></defs><path class="cls-1" d="M192.73,66.82c-.29.38-.6.75-.85,1.15-7.14,11.5-14.41,22.93-21.33,34.55-2,3.41-4.77,4.58-8.34,4.75-5,.24-5.1.2-5.49-4.7-.31-3.83-.41-7.68-.56-11.52-.26-6.51-.48-13-.73-19.51a1.28,1.28,0,0,0-.55-1c-.19.48-.43,1-.58,1.44-3.33,11.21-6.71,22.4-9.94,33.64-.68,2.39-2,3.71-4.38,4a38.62,38.62,0,0,1-5.22.59c-2.38,0-3.1-1.14-2.43-3.4q6.6-22.26,13.23-44.5c.25-.86.55-1.72.84-2.57,1-2.94,2.92-4.8,6.13-5.1,3-.3,6.07-.73,9.12-.85s4.69,1.6,4.86,4.62c.54,9.26,1.12,18.51,1.68,27.77a8.54,8.54,0,0,0,.27,1c.55-.7,1-1.16,1.32-1.68,6.13-9.59,12.41-19.1,18.3-28.84,3-5,7.08-7.55,12.86-7.66,1.46,0,2.93-.32,4.39-.37,3-.09,4.28,1.47,3.5,4.43-1,3.88-2.18,7.72-3.32,11.56-3.47,11.69-7,23.37-10.39,35.09-.73,2.51-2.1,3.9-4.67,4.15a34.81,34.81,0,0,1-5.55.45c-2-.14-2.47-1.1-1.9-3q4.69-15.84,9.41-31.67c.26-.88.45-1.79.67-2.68Z" transform="translate(0)"/><path class="cls-1" d="M13.32,125.12c-1.72-.29-3.48-.45-5.16-.89-6.8-1.8-9.11-7.61-7.82-13.12,2.29-9.71,5.3-19.25,8-28.86.75-2.66,1.61-5.29,2.31-8a4.68,4.68,0,0,1,3.89-3.77,41.34,41.34,0,0,1,6.06-.69c2.57-.08,3.3,1,2.57,3.41C21.05,80.48,18.84,87.72,16.74,95c-1.22,4.22-2.44,8.46-3.33,12.76-.79,3.8,1.31,6.07,5.22,6.17,6.26.16,12.14-4.12,14.44-10.94C35.2,96.67,37,90.25,38.9,83.86c1.26-4.21,2.64-8.4,3.71-12.67.68-2.73,2.12-4.29,4.92-4.52a43,43,0,0,1,5.88-.34c2,.1,2.42.93,1.89,2.87-.71,2.55-1.51,5.08-2.28,7.63-2.45,8.22-4.72,16.5-7.41,24.65-4.61,13.94-14.39,21.65-29,23.18-.56.06-1.12.2-1.68.25s-1,0-1.54,0Z" transform="translate(0)"/><path class="cls-1" d="M91.17,110.79c0,3.7-.68,4.6-4.33,5.2a49.43,49.43,0,0,1-6.08.57c-1.94.08-2.59-.49-2.73-2.41-.17-2.36-.24-4.74-.23-7.11,0-1.38-.43-2-1.88-1.81-5.11.61-10.24,1.13-15.34,1.81a3,3,0,0,0-1.73,1.41c-1.83,2.92-3.58,5.9-5.3,8.89a5.38,5.38,0,0,1-4.17,2.85c-1.91.25-3.82.57-5.73.64-2.18.08-3-1.19-2.07-3.2A23.24,23.24,0,0,1,43,114.94Q57.68,91,72.34,67A7.16,7.16,0,0,1,78,63.13c2.7-.27,5.4-.66,8.1-.81,2.17-.12,3,.78,3.08,2.89q.7,16.35,1.42,32.71Q90.85,104.35,91.17,110.79ZM65.93,95.93l.24.5c3.53-.4,7.06-.76,10.57-1.27.36,0,.85-1,.85-1.55,0-4.47-.16-8.93-.28-13.4a18.38,18.38,0,0,0-.25-1.94l-.43-.11Z" transform="translate(0)"/><path class="cls-1" d="M134.15,36c.59-.89.94-1.38,1.26-1.89,4.49-7,9-14,13.45-21a9.23,9.23,0,0,1,7.65-4.64c1.47-.1,2.93-.36,4.39-.53,2.45-.28,4,1.35,3.38,3.71-2.31,8.1-4.73,16.16-7.11,24.24-1.07,3.63-2.21,7.25-3.2,10.9a3.87,3.87,0,0,1-3.54,3.14,30.83,30.83,0,0,1-3.71.35c-2.4,0-3-.76-2.35-3,1.66-5.75,3.38-11.49,5.07-17.24a33.5,33.5,0,0,0,1.26-5.45c-.28.4-.59.78-.84,1.2q-7.25,11.69-14.48,23.4c-1.68,2.7-6.37,4.36-9.25,3.08a2.84,2.84,0,0,1-1.36-2c-.33-5.14-.5-10.29-.73-15.44-.12-2.6-.25-5.19-.6-7.85-.17.48-.36,1-.51,1.46-2.2,7.42-4.46,14.83-6.56,22.28A4.6,4.6,0,0,1,112,54.38a28.62,28.62,0,0,1-3,.22c-2.4,0-3-.75-2.31-3,1.65-5.7,3.34-11.39,5-17.08s3.52-11.57,5.2-17.38c.82-2.84,2.56-4.45,5.52-4.71,2.14-.19,4.29-.5,6.43-.53,2.62,0,3.91,1.34,4.06,4q.51,9.16,1,18.31C133.9,34.63,134,35.1,134.15,36Z" transform="translate(0)"/><path class="cls-1" d="M109.23,103.28c3.36-.37,6.5-.7,9.64-1.06,2.25-.25,4.49-.58,6.74-.81,1.65-.16,2.34.46,2.36,2.1a12.1,12.1,0,0,1-2.22,7c-1,1.55-2.83,1.29-4.35,1.48-7.64,1-15.29,1.79-22.93,2.72-3.31.4-4.71-1.15-3.75-4.4q6.72-22.83,13.48-45.66c1.15-3.87,2.91-5,7-5.45,6.42-.63,12.83-1.47,19.24-2.2,1.63-.19,3.26-.35,4.9-.48a1.58,1.58,0,0,1,1.89,1.84,13.24,13.24,0,0,1-2.39,7.3c-1.16,1.62-3.09,1.25-4.71,1.46-4.37.59-8.77,1-13.16,1.48a2.52,2.52,0,0,0-2.49,2.07c-.64,2.52-1.45,5-2.16,7.49-.46,1.61-.23,1.85,1.34,1.65,4-.51,8-1,12-1.47,1.58-.2,2.69.67,2.37,2.23A26.65,26.65,0,0,1,129.92,87,4.29,4.29,0,0,1,127,88.54c-4.21.6-8.44.93-12.65,1.48a2.48,2.48,0,0,0-1.8,1.19c-1.2,3.59-2.22,7.23-3.28,10.86A6.27,6.27,0,0,0,109.23,103.28Z" transform="translate(0)"/><path class="cls-1" d="M203.75,90.63c.09-13.34,9.49-27.06,21.36-31.2a24.32,24.32,0,0,1,11.38-1.19c5,.67,8.27,4.89,7.84,10.4a65.07,65.07,0,0,1-1.4,7.63c-.79,3.9-3.28,5.56-7.18,5.89-6,.5-12,1.31-18.05,2a1.84,1.84,0,0,0-1.06.41c-1.83,1.87-.65,6.23,1.9,6.91,3.09.84,6.07-.06,9-.91,2.17-.63,4.21-1.67,6.37-2.34a3.38,3.38,0,0,1,2.63.1c.48.37.51,1.65.38,2.47-.63,3.92-2.52,6.72-6.59,8-5.43,1.67-10.79,3.31-16.6,2.79C206.93,101,203.7,97.53,203.75,90.63Zm15.86-15.07c.72,0,1.27-.07,1.82-.14,2.58-.28,5.15-.65,7.74-.86,3.05-.26,4.66-3.08,3.11-5.76a2.94,2.94,0,0,0-1.68-1.25C226.25,66.54,220.25,70.83,219.61,75.56Z" transform="translate(0)"/><path class="cls-1" d="M190.9,3.94c1.19.09,2.39.08,3.56.28,5.33.93,8.48,4.38,8.16,9.78-.8,13.67-6,24.9-18.9,31.3a24.52,24.52,0,0,1-15.23,2.25c-4.75-.81-7.35-3.65-7.94-8.44C158.86,25.24,170.3,8.4,183.84,5c2.29-.58,4.68-.78,7-1.15ZM175.85,38.83a11.67,11.67,0,0,0,8.73-3.55c5-5.19,7.07-11.6,7.23-18.66.05-2.14-1-3.22-3.14-3.53-4.66-.69-8.39,1.21-11.24,4.66a27.85,27.85,0,0,0-6.08,16.58C171.16,37.56,172.6,38.84,175.85,38.83Z" transform="translate(0)"/><path class="cls-1" d="M80,58.4c-.85,0-1.71.05-2.56,0-5.4-.39-9.07-3.85-9-9.16.12-11.7,4.36-21.64,13.69-29A26.83,26.83,0,0,1,101,14.68c6.14.37,10,4.39,9.58,10.67-.66,10-4.21,19-11.75,25.93A27.1,27.1,0,0,1,80,58.4Zm-.77-15c-.22,4.26.83,5.85,3.25,6.06a11.7,11.7,0,0,0,9.31-2.92c5.5-5.07,7.52-11.73,7.88-18.92.14-2.84-1.82-4.17-4.94-4C90,23.85,86.5,26.25,84,30.09A30.5,30.5,0,0,0,79.25,43.35Z" transform="translate(0)"/><path class="cls-1" d="M263.41,67l3.23-4.18c1.49-1.93,3.07-3.79,4.44-5.8a6.81,6.81,0,0,1,5.43-3.29c1.47-.1,2.93-.51,4.38-.49a3.41,3.41,0,0,1,2.45,1c.33.46,0,1.75-.52,2.37-3.56,4.7-7.05,9.47-10.92,13.9-2.39,2.72-3.07,5.23-1.87,8.67,1.28,3.67,2,7.52,3,11.3.64,2.54.09,3.69-2.47,4.24a54.51,54.51,0,0,1-7.55,1c-2,.14-2.73-.54-3.19-2.53-.59-2.58-1.15-5.18-1.74-7.76-.09-.37-.25-.72-.49-1.42-.55.61-1,1-1.33,1.45-2.51,3.29-5,6.57-7.49,9.89a5.59,5.59,0,0,1-4.06,2.49c-1.8.19-3.59.55-5.39.58a3.91,3.91,0,0,1-2.84-.86c-.86-1.11.2-2.2.94-3.13L246,83.63c1.73-2.17,3.53-4.3,5.15-6.55a3.33,3.33,0,0,0,.49-2.44c-1.1-4.73-2.32-9.43-3.54-14.13-.44-1.68.19-3,1.74-3.32A86.14,86.14,0,0,1,259,56c1.13-.1,1.79.75,2.05,1.89.59,2.59,1.24,5.16,1.87,7.74C263,65.89,263.13,66.18,263.41,67Z" transform="translate(0)"/><path class="cls-1" d="M45.35,62.68c-2.16-.59-4.35-1.06-6.46-1.79a2.68,2.68,0,0,1-1.75-3.44,26.47,26.47,0,0,1,1.24-4c.92-2.14,2.14-2.54,4.2-1.39a10.35,10.35,0,0,0,10.39.3,7,7,0,0,0,2.11-1.66c2.06-2.49,1.62-4.23-1.31-5.54-1.08-.48-2.21-.88-3.29-1.36-5.3-2.34-6.92-5.77-5.37-11.38,2.65-9.59,14-16.11,23.63-13.57,2.92.77,3.63,1.93,2.87,4.82a20.6,20.6,0,0,1-1,3.05c-.92,2.06-1.88,2.4-3.9,1.41a9.24,9.24,0,0,0-6.74-1,7.46,7.46,0,0,0-2.45,1.11c-3,2.17-2.7,4.61.62,6.07,1.6.71,3.28,1.29,4.83,2.09,3.78,2,5.19,5.23,4.21,9.38C64.87,55.43,56,62.19,45.35,62.68Z" transform="translate(0)"/><path class="cls-1" d="M205.51,44.37c-2.19-.63-4.44-1.15-6.58-2A2.58,2.58,0,0,1,197.41,39a29,29,0,0,1,1.25-3.86c1-2.28,2.13-2.66,4.29-1.43a10.66,10.66,0,0,0,9.64.65,6.36,6.36,0,0,0,3.69-3.55c.73-1.71.46-2.67-1.2-3.51-1.87-.94-3.86-1.65-5.72-2.6-2.92-1.48-4.8-3.85-4.43-7.19a21.86,21.86,0,0,1,2-7.11c3.65-7.36,13.65-11.86,21.66-10,3.42.79,4.14,2,3.29,5.3-.1.39-.22.77-.34,1.14-1.21,3.62-2,4-5.55,2.47a8,8,0,0,0-7.52.24A6.56,6.56,0,0,0,216.18,12c-.91,1.69-.48,2.74,1.25,3.58s3.47,1.42,5.15,2.23c4.52,2.2,6,5.44,4.75,10.32-2.12,8.34-10.26,15-19.14,15.73-.85.07-1.7.11-2.55.16Z" transform="translate(0)"/><path class="cls-1" d="M230,56.1a3.86,3.86,0,0,1-1.18,0c-.7-.25-1.7-.47-1.93-1a2.55,2.55,0,0,1,.53-2.1c2.91-3.55,5.88-7,8.88-10.49,2-2.33,4.92-2.3,7.65-2.6a8.9,8.9,0,0,1,2.87.13c1.5.35,1.89,1.44.93,2.65a31.14,31.14,0,0,1-2.8,3c-2.25,2.23-4.62,4.34-6.76,6.67A10.41,10.41,0,0,1,230,56.1Z" transform="translate(0)"/></svg>